<svg width="42" height="42" viewBox="0 0 42 42" fill="none" xmlns="http://www.w3.org/2000/svg">
<rect width="42" height="42" rx="6" fill="#001024"/>
<path d="M15.0944 20.2288C15.0322 19.8282 15 19.4179 15 19C15 14.5817 18.6052 11 23.0526 11C27.4999 11 31.1052 14.5817 31.1052 19C31.1052 19.9981 30.9213 20.9535 30.5852 21.8345C30.5154 22.0175 30.4804 22.109 30.4646 22.1804C30.4489 22.2512 30.4428 22.301 30.4411 22.3735C30.4394 22.4466 30.4493 22.5272 30.4692 22.6883L30.8717 25.9585C30.9153 26.3125 30.9371 26.4895 30.8782 26.6182C30.8266 26.731 30.735 26.8205 30.6211 26.8695C30.4911 26.9254 30.3146 26.8995 29.9617 26.8478L26.7765 26.3809C26.6101 26.3565 26.527 26.3443 26.4512 26.3448C26.3763 26.3452 26.3245 26.3507 26.2511 26.3661C26.177 26.3817 26.0823 26.4172 25.893 26.4881C25.0097 26.819 24.0524 27 23.0526 27C22.6344 27 22.2237 26.9683 21.8227 26.9073M16.6316 31C19.5965 31 22 28.5376 22 25.5C22 22.4624 19.5965 20 16.6316 20C13.6667 20 11.2632 22.4624 11.2632 25.5C11.2632 26.1106 11.3603 26.6979 11.5395 27.2467C11.6153 27.4787 11.6532 27.5947 11.6657 27.6739C11.6786 27.7567 11.6809 27.8031 11.6761 27.8867C11.6714 27.9668 11.6514 28.0573 11.6113 28.2383L11 31L13.9948 30.591C14.1583 30.5687 14.24 30.5575 14.3114 30.558C14.3865 30.5585 14.4264 30.5626 14.5001 30.5773C14.5701 30.5912 14.6742 30.6279 14.8823 30.7014C15.4306 30.8949 16.0191 31 16.6316 31Z" stroke="white" stroke-width="2" stroke-linecap="round" stroke-linejoin="round"/>
</svg>
