<svg width="42" height="42" viewBox="0 0 42 42" fill="none" xmlns="http://www.w3.org/2000/svg">
<rect width="42" height="42" rx="6" fill="#001024"/>
<path d="M11.5 30.5L17.0493 28.3657C17.4042 28.2291 17.5817 28.1609 17.7477 28.0718C17.8952 27.9926 18.0358 27.9012 18.168 27.7986C18.3169 27.6831 18.4514 27.5486 18.7203 27.2797L30 16C31.1046 14.8954 31.1046 13.1046 30 12C28.8955 10.8954 27.1046 10.8954 26 12L14.7203 23.2797C14.4514 23.5486 14.3169 23.6831 14.2014 23.832C14.0988 23.9642 14.0074 24.1048 13.9282 24.2523C13.8391 24.4183 13.7708 24.5958 13.6343 24.9507L11.5 30.5ZM11.5 30.5L13.5581 25.149C13.7054 24.766 13.779 24.5746 13.9053 24.4869C14.0157 24.4102 14.1523 24.3813 14.2843 24.4065C14.4353 24.4353 14.5804 24.5804 14.8705 24.8705L17.1296 27.1295C17.4197 27.4196 17.5647 27.5647 17.5936 27.7157C17.6188 27.8477 17.5898 27.9843 17.5131 28.0947C17.4254 28.221 17.234 28.2946 16.8511 28.4419L11.5 30.5Z" stroke="white" stroke-width="2" stroke-linecap="round" stroke-linejoin="round"/>
</svg>
