<svg xmlns="http://www.w3.org/2000/svg" xmlns:xlink="http://www.w3.org/1999/xlink" width="300" zoomAndPan="magnify" viewBox="0 0 224.87999 225" height="300" preserveAspectRatio="xMidYMid meet" version="1.0"><defs><g/></defs><g fill="#ff00ff" fill-opacity="1"><g transform="translate(25.108861, 199.320384)"><g><path d="M 12.855469 -149.101562 L 12.855469 -30.847656 L 43.703125 -30.847656 L 43.703125 0 L 105.398438 0 L 105.398438 -30.847656 L 43.703125 -30.847656 L 43.703125 -149.101562 Z M 43.703125 -179.949219 L 43.703125 -149.101562 L 105.398438 -149.101562 L 105.398438 -118.253906 L 136.25 -118.253906 L 136.25 -149.101562 L 105.398438 -149.101562 L 105.398438 -179.949219 Z M 136.25 -30.847656 L 136.25 -89.976562 L 74.550781 -89.976562 L 74.550781 -59.125 L 105.398438 -59.125 L 105.398438 -30.847656 Z M 136.25 -30.847656 "/></g></g></g><g fill="#00ffff" fill-opacity="1"><g transform="translate(50.676479, 205.695109)"><g><path d="M 12.855469 -149.101562 L 12.855469 -30.847656 L 43.703125 -30.847656 L 43.703125 0 L 105.398438 0 L 105.398438 -30.847656 L 43.703125 -30.847656 L 43.703125 -149.101562 Z M 43.703125 -179.949219 L 43.703125 -149.101562 L 105.398438 -149.101562 L 105.398438 -118.253906 L 136.25 -118.253906 L 136.25 -149.101562 L 105.398438 -149.101562 L 105.398438 -179.949219 Z M 136.25 -30.847656 L 136.25 -89.976562 L 74.550781 -89.976562 L 74.550781 -59.125 L 105.398438 -59.125 L 105.398438 -30.847656 Z M 136.25 -30.847656 "/></g></g></g><g fill="#3b1b72" fill-opacity="1"><g transform="translate(37.892671, 202.507746)"><g><path d="M 12.855469 -149.101562 L 12.855469 -30.847656 L 43.703125 -30.847656 L 43.703125 0 L 105.398438 0 L 105.398438 -30.847656 L 43.703125 -30.847656 L 43.703125 -149.101562 Z M 43.703125 -179.949219 L 43.703125 -149.101562 L 105.398438 -149.101562 L 105.398438 -118.253906 L 136.25 -118.253906 L 136.25 -149.101562 L 105.398438 -149.101562 L 105.398438 -179.949219 Z M 136.25 -30.847656 L 136.25 -89.976562 L 74.550781 -89.976562 L 74.550781 -59.125 L 105.398438 -59.125 L 105.398438 -30.847656 Z M 136.25 -30.847656 "/></g></g></g></svg>