<svg width="217" height="88" viewBox="0 0 217 88" fill="none" xmlns="http://www.w3.org/2000/svg">
<path d="M105.067 49.2869C105.067 47.0011 105.445 44.9088 106.201 43.0098C106.975 41.0933 108.03 39.4581 109.366 38.1042C112.162 35.2734 115.687 33.858 119.942 33.858C124.707 33.858 128.4 35.2734 131.02 38.1042C133.552 40.8296 134.818 44.5747 134.818 49.3397C134.818 53.9464 133.385 57.7091 130.519 60.6278C127.723 63.4938 124.197 64.9268 119.942 64.9268C115.459 64.9268 111.854 63.4587 109.129 60.5223C106.421 57.6563 105.067 53.9112 105.067 49.2869ZM113.534 42.5878C112.883 43.5549 112.408 44.6626 112.109 45.911C111.81 47.1418 111.661 48.399 111.661 49.6825C111.661 50.9485 111.828 52.1705 112.162 53.3485C112.514 54.509 113.032 55.5464 113.718 56.4607C115.23 58.4651 117.34 59.4674 120.048 59.4674C122.808 59.4674 124.901 58.4827 126.325 56.5134C127.591 54.7903 128.224 52.443 128.224 49.4715C128.224 45.0231 126.765 41.9549 123.846 40.2669C122.773 39.6515 121.472 39.3438 119.942 39.3438C118.43 39.3438 117.147 39.6427 116.092 40.2405C115.054 40.8208 114.202 41.6032 113.534 42.5878Z" fill="#464646"/>
<path d="M142.123 36.4163C142.123 35.1503 142.677 34.5173 143.785 34.5173H145.209C146.176 34.5173 146.862 34.9393 147.266 35.7833C147.846 37.0141 148.268 38.7108 148.532 40.8735C148.532 40.9087 148.541 40.9263 148.558 40.9263C148.594 40.9263 148.655 40.6274 148.743 40.0295C148.831 39.4317 149.086 38.702 149.508 37.8405C149.93 36.9613 150.449 36.2229 151.064 35.6251C152.312 34.447 153.842 33.858 155.653 33.858C157.675 33.858 159.082 34.1921 159.873 34.8602C160.242 35.1591 160.392 35.5723 160.321 36.0998L159.899 39.4229C159.794 40.3197 159.337 40.768 158.528 40.768C158.141 40.768 157.666 40.6889 157.104 40.5307C156.014 40.2493 155.152 40.1087 154.519 40.1087C153.886 40.1087 153.218 40.39 152.515 40.9526C151.811 41.4977 151.205 42.1834 150.695 43.0098C149.657 44.733 149.139 46.5704 149.139 48.5221V62.5268C149.139 63.0191 148.998 63.4323 148.717 63.7664C148.435 64.1004 148.031 64.2675 147.504 64.2675H144.444C143.881 64.2675 143.451 64.1004 143.152 63.7664C142.87 63.4323 142.73 63.0191 142.73 62.5268V44.3549C142.73 41.2603 142.624 39.2207 142.413 38.2361C142.22 37.2339 142.123 36.6273 142.123 36.4163Z" fill="#464646"/>
<path d="M172.559 61.4454C174.212 60.6366 175.961 60.2322 177.808 60.2322C179.671 60.2322 181.324 60.408 182.766 60.7597C184.225 61.0938 185.535 61.63 186.696 62.3685C189.298 64.0213 190.599 66.3335 190.599 69.3049C190.599 72.3995 189.122 74.8875 186.168 76.7689C183.548 78.4216 180.401 79.248 176.726 79.248C172.981 79.248 169.86 78.4392 167.363 76.8216C164.673 75.0633 163.328 72.6721 163.328 69.6478C163.328 65.973 165.271 62.4213 169.157 58.9926C170.669 57.6739 172.339 56.4871 174.168 55.4321C171.302 55.1684 168.858 54.1573 166.836 52.3991C164.568 50.4122 163.434 47.9418 163.434 44.9879C163.434 41.5944 164.708 38.8427 167.258 36.7328C169.596 34.8162 172.383 33.858 175.618 33.858C179.1 33.858 181.834 34.7987 183.821 36.68C184.436 37.2603 184.929 37.9196 185.298 38.6581C185.298 37.0405 185.087 35.3701 184.665 33.647C184.26 31.9063 184.058 30.8689 184.058 30.5348C184.058 30.2008 184.12 29.937 184.243 29.7436C184.383 29.5326 184.542 29.3744 184.718 29.2689C184.981 29.1106 185.28 29.0315 185.614 29.0315H187.882C189.342 29.0315 190.072 31.0623 190.072 35.1239C190.072 38.3768 189.421 41.3746 188.12 44.1176C188.155 44.5044 188.173 45.0143 188.173 45.6473C188.173 46.2802 188.032 47.0187 187.751 47.8627C187.469 48.7067 187.091 49.4979 186.617 50.2364C186.159 50.9573 185.623 51.6254 185.008 52.2408C184.41 52.8562 183.768 53.4277 183.082 53.9551C182.414 54.4826 181.737 54.9662 181.052 55.4057C177.201 57.8497 174.898 59.3794 174.141 59.9948C173.385 60.5927 172.858 61.0762 172.559 61.4454ZM171.346 49.2078C171.944 49.7177 172.638 50.1133 173.429 50.3946C174.238 50.6584 175.091 50.7902 175.988 50.7902C176.902 50.7902 177.737 50.6584 178.493 50.3946C179.249 50.1133 179.917 49.7089 180.498 49.1814C181.728 48.0737 182.344 46.6495 182.344 44.9088C182.344 43.1329 181.658 41.7351 180.287 40.7153C179.073 39.8186 177.579 39.3702 175.803 39.3702C172.99 39.3702 171.047 40.4164 169.974 42.5087C169.623 43.1945 169.447 43.9945 169.447 44.9088C169.447 45.8055 169.614 46.6143 169.948 47.3352C170.282 48.0561 170.748 48.6803 171.346 49.2078ZM170.08 66.3247C169.429 67.0631 169.104 67.8807 169.104 68.7775C169.104 69.6742 169.324 70.439 169.763 71.072C170.203 71.705 170.783 72.2325 171.504 72.6545C172.893 73.4457 174.634 73.8413 176.726 73.8413C180.032 73.8413 182.335 73.0237 183.636 71.3885C184.058 70.8434 184.269 70.1577 184.269 69.3313C184.269 68.5049 184.005 67.8016 183.478 67.2214C182.968 66.6412 182.326 66.1928 181.553 65.8763C180.269 65.3488 178.599 65.0851 176.542 65.0851C173.377 65.0851 171.223 65.4983 170.08 66.3247Z" fill="#464646"/>
<path d="M205.052 59.5201C208.428 59.5201 210.116 58.386 210.116 56.1178C210.116 54.8695 209.158 53.8145 207.241 52.9529C206.432 52.5837 205.544 52.2408 204.577 51.9243C203.628 51.6078 202.714 51.2298 201.834 50.7902C200.955 50.3507 200.129 49.8759 199.355 49.366C198.599 48.8385 197.94 48.2407 197.377 47.5726C196.217 46.166 195.636 44.3813 195.636 42.2186C195.636 39.5812 196.735 37.4888 198.933 35.9415C200.885 34.5525 203.285 33.858 206.133 33.858C209.193 33.858 211.751 34.4558 213.808 35.6514C214.512 36.0734 214.863 36.5569 214.863 37.102C214.863 37.8757 214.652 38.7284 214.23 39.6603C213.826 40.5746 213.342 41.0318 212.78 41.0318C212.235 41.0318 211.734 40.9175 211.276 40.6889C210.837 40.4603 210.432 40.2669 210.063 40.1087C209.712 39.9328 209.334 39.7922 208.929 39.6867C208.05 39.4229 207.232 39.2911 206.476 39.2911C205.738 39.2911 205.14 39.3438 204.683 39.4493C204.226 39.5548 203.812 39.7218 203.443 39.9504C202.547 40.4955 202.098 41.1636 202.098 41.9549C202.098 42.7461 202.274 43.3527 202.626 43.7747C202.995 44.1967 203.496 44.5835 204.129 44.9352C204.762 45.2868 205.518 45.6385 206.397 45.9901L209.246 47.177C211.549 48.1792 213.105 49.0847 213.914 49.8935C215.496 51.5111 216.288 53.3837 216.288 55.5112C216.288 58.1838 215.373 60.3817 213.545 62.1048C211.523 63.9861 208.648 64.9268 204.92 64.9268C201.14 64.9268 198.3 64.1971 196.401 62.7378C195.469 62.0345 195.004 61.4015 195.004 60.8388C195.004 60.2762 195.1 59.7751 195.294 59.3355C195.505 58.8783 195.768 58.3508 196.085 57.753C196.419 57.1376 196.858 56.8299 197.404 56.8299C197.966 56.8299 198.555 57.0849 199.171 57.5948C199.804 58.0871 200.665 58.5355 201.755 58.9399C202.845 59.3267 203.944 59.5201 205.052 59.5201Z" fill="#464646"/>
<path d="M9.21812 0.437147L9.17895 5.02548L7.23625 0.125427L4.22679 1.28185L6.16949 6.1821L2.98355 2.8327L0.625488 5.00719L8.26605 13.1495L12.376 11.3603L12.4489 0.463588L9.21812 0.437147Z" fill="#7EB457"/>
<path d="M25.7005 51.0768C24.874 51.3944 23.9574 51.3999 23.1269 51.0924C22.2965 50.7849 21.6108 50.186 21.2017 49.4109L5.45169 19.541C4.98223 18.651 4.70827 17.6738 4.64764 16.6727C4.58701 15.6717 4.74105 14.6693 5.09977 13.7307C5.45848 12.7922 6.01383 11.9384 6.72969 11.2251C7.44556 10.5117 8.30591 9.95465 9.25481 9.59017C10.2037 9.22568 11.2199 9.0619 12.2373 9.10949C13.2547 9.15708 14.2506 9.41497 15.1601 9.86638C16.0696 10.3178 16.8725 10.9526 17.5164 11.7296C18.1604 12.5066 18.631 13.4083 18.8977 14.3761L18.9139 14.4338L19.766 17.5212L20.6161 20.6006L21.4682 23.688L22.3203 26.7734L23.1725 29.8607L24.0205 32.9322L24.8726 36.0216L25.745 39.1786L26.5971 42.262L27.8631 46.8503C28.0951 47.6933 28.0027 48.591 27.6035 49.3711C27.2044 50.1512 26.5267 50.7586 25.7005 51.0768Z" fill="#F98500"/>
<path d="M19.7674 17.5215L13.3665 19.9647C12.9672 20.1179 12.5225 20.1086 12.1302 19.939C11.7379 19.7694 11.4301 19.4533 11.2746 19.0602C11.119 18.6671 11.1284 18.2293 11.3007 17.8431C11.473 17.4568 11.7941 17.1538 12.1933 17.0006L18.9153 14.4341L19.7674 17.5215Z" fill="#FA6D00"/>
<path d="M21.4698 23.6881L15.717 25.8908C15.3177 26.0442 14.8729 26.0352 14.4804 25.8658C14.0879 25.6963 13.7799 25.3803 13.624 24.9873C13.4682 24.5942 13.4773 24.1563 13.6495 23.7698C13.8216 23.3834 14.1425 23.0801 14.5418 22.9267L20.6177 20.6007L21.4698 23.6881Z" fill="#FA6D00"/>
<path d="M23.1751 29.8607L18.0664 31.8169C17.8688 31.8927 17.6578 31.9295 17.4457 31.9251C17.2336 31.9207 17.0244 31.8752 16.8302 31.7912C16.6359 31.7072 16.4604 31.5863 16.3136 31.4356C16.1668 31.2848 16.0515 31.107 15.9745 30.9124C15.8975 30.7177 15.8601 30.5101 15.8646 30.3012C15.8691 30.0924 15.9153 29.8865 16.0006 29.6952C16.0859 29.504 16.2087 29.3311 16.3618 29.1866C16.515 29.042 16.6956 28.9286 16.8933 28.8528L22.323 26.7733L23.1751 29.8607Z" fill="#FA6D00"/>
<path d="M24.8727 36.0214L20.4142 37.743C20.015 37.8964 19.5702 37.8874 19.1777 37.718C18.7852 37.5485 18.4772 37.2325 18.3213 36.8394C18.1655 36.4464 18.1746 36.0085 18.3467 35.622C18.5188 35.2356 18.8398 34.9323 19.2391 34.7789L24.0206 32.932L24.8727 36.0214Z" fill="#FA6D00"/>
<path d="M26.5982 42.2614L22.7637 43.6689C22.3645 43.8221 21.9198 43.8128 21.5275 43.6432C21.1351 43.4735 20.8273 43.1574 20.6718 42.7643C20.5162 42.3713 20.5256 41.9335 20.6979 41.5472C20.8702 41.161 21.1913 40.8579 21.5905 40.7048L25.7461 39.178L26.5982 42.2614Z" fill="#FA6D00"/>
<path d="M44.7128 21.8858C44.0464 21.4395 43.5267 20.8115 43.2175 20.0787C42.9083 19.346 42.823 18.5403 42.972 17.7605C43.1537 16.8682 43.1527 15.9491 42.9689 15.0572C42.7851 14.1653 42.4223 13.3185 41.9018 12.5665C41.3812 11.8145 40.7133 11.1723 39.9374 10.6778C39.1614 10.1832 38.293 9.84614 37.383 9.68637C36.6164 9.56058 35.9 9.22903 35.3124 8.72819C34.7249 8.22735 34.2892 7.57665 34.0531 6.84769C33.9403 6.48727 33.798 6.13649 33.6274 5.79882C32.8254 4.21712 31.4322 3.0028 29.7403 2.41075C28.0484 1.81871 26.1894 1.89498 24.5533 2.62355C22.9173 3.35213 21.6316 4.67635 20.966 6.31826C20.3005 7.96016 20.3068 9.79208 20.9838 11.4295C21.0646 11.6246 21.1531 11.8139 21.2495 11.9974C21.9803 13.389 21.7654 15.0574 20.8483 16.3371C20.3168 17.0775 19.9403 17.9145 19.7405 18.7996C19.5408 19.6846 19.5218 20.5999 19.6848 21.4923C19.8478 22.3846 20.1894 23.2361 20.6898 23.9972C21.1902 24.7582 21.8394 25.4137 22.5996 25.9254C23.2595 26.381 23.77 27.0163 24.0685 27.7533C24.3671 28.4904 24.4407 29.2972 24.2804 30.0748C23.9494 31.7705 24.2826 33.5267 25.2129 34.9904C26.1432 36.4541 27.6018 37.5169 29.2955 37.9653C30.9891 38.4136 32.7924 38.2142 34.3428 37.4071C35.8933 36.6 37.076 35.2451 37.6533 33.6147C39.2232 34.3844 41.0308 34.5407 42.7128 34.0521C44.3949 33.5635 45.8268 32.4663 46.7209 30.9809C47.615 29.4955 47.9049 27.7319 47.5325 26.0447C47.16 24.3574 46.1528 22.8715 44.7132 21.8854L44.7128 21.8858Z" fill="#598C44"/>
<path d="M43.3093 43.0749L37.7451 29.6177L40.7739 25.2232L38.1005 23.4371L36.2809 26.0768L33.8183 20.1205L36.8471 15.726L34.1737 13.94L32.3541 16.5797L29.5654 9.83496L26.5732 11.0341L29.362 17.7789L26.1874 17.1407L25.541 20.2573L30.8262 21.3197L33.2888 27.2762L30.114 26.6378L29.4676 29.7544L34.753 30.8168L40.317 44.2741L43.3093 43.0749Z" fill="#79AD54"/>
<path d="M60.4541 27.3459C60.0077 26.6852 59.7669 25.9106 59.7612 25.1171C59.7554 24.3236 59.985 23.5458 60.4218 22.8789C60.9318 22.1199 61.2828 21.2682 61.4541 20.3739C61.6254 19.4796 61.6136 18.5606 61.4194 17.6708C61.2252 16.7811 60.8524 15.9384 60.3231 15.1924C59.7937 14.4463 59.1184 13.8118 58.3367 13.3261C57.6749 12.925 57.1384 12.3519 56.786 11.6699C56.4337 10.988 56.2793 10.2236 56.3397 9.46078C56.3732 9.08507 56.3757 8.7073 56.3472 8.3312C56.2103 6.56835 55.3851 4.92625 54.0447 3.74966C52.7044 2.57306 50.9531 1.95348 49.1587 2.02098C47.3642 2.08849 45.6661 2.83783 44.4209 4.11169C43.1756 5.38555 42.4801 7.08486 42.4803 8.85285C42.4803 9.06331 42.4898 9.27153 42.5089 9.47748C42.6531 11.0373 41.8149 12.5032 40.4754 13.3479C39.6996 13.8364 39.0302 14.472 38.5063 15.2175C37.9824 15.9631 37.6143 16.8039 37.4235 17.6908C37.2327 18.5778 37.2231 19.4933 37.3951 20.3839C37.5671 21.2746 37.9173 22.1227 38.4254 22.8789C38.8622 23.5458 39.0918 24.3236 39.086 25.1171C39.0803 25.9106 38.8395 26.6852 38.3931 27.3459C37.4372 28.7936 37.0732 30.5438 37.3744 32.2449C37.6755 33.946 38.6194 35.4718 40.0164 36.5157C41.4134 37.5596 43.16 38.0443 44.9051 37.8723C46.6502 37.7003 48.2645 36.8845 49.4236 35.5886C50.583 36.8837 52.1971 37.6989 53.9418 37.8705C55.6865 38.0421 57.4326 37.5574 58.8292 36.5137C60.2259 35.47 61.1697 33.9447 61.4711 32.2441C61.7725 30.5435 61.4092 28.7936 60.4541 27.3459Z" fill="#5F9548"/>
<path d="M53.7354 26.3284L51.0393 28.0979V21.6669L55.5274 18.7211L53.7354 16.0744L51.0393 17.8442V10.5619H47.8085V17.8442L45.1126 16.0744L43.3206 18.7211L47.8085 21.6669V28.0979L45.1126 26.3284L43.3206 28.975L47.8085 31.9207V46.4505H51.0393V31.9207L55.5274 28.975L53.7354 26.3284Z" fill="#7EB457"/>
<path d="M71.2662 46.548L51.8816 40.1863L62.5552 8.66047C63.2103 6.72578 64.467 5.04304 66.1474 3.85061C67.8278 2.65819 69.8466 2.01653 71.918 2.01654H72.6504C74.8914 2.01652 77.0657 2.76741 78.8157 4.1457C80.3921 5.3873 81.5438 7.07496 82.1155 8.98108C82.6872 10.8872 82.6515 12.9201 82.0132 14.8056L71.2662 46.548Z" fill="#FFB531"/>
<path d="M66.1167 13.1976L75.8052 11.6111L76.335 14.7474L66.6465 16.3339L66.1167 13.1976Z" fill="#F98500"/>
<path d="M62.8853 22.7346L72.5737 21.1481L73.1036 24.2844L63.4151 25.8709L62.8853 22.7346Z" fill="#F98500"/>
<path d="M58.3424 30.644V87.8987H9.88086V30.644L14.727 33.8249L19.5732 30.644L24.4193 33.8249L29.2655 30.644L34.1116 33.8249L38.9578 30.644L43.804 33.8249L48.6501 30.644L53.4963 33.8249L58.3424 30.644Z" fill="#FFB531"/>
<path d="M58.3424 43.8203V87.8985H9.88086V78.2507C27.6763 72.3761 45.3042 61.6488 58.3424 43.8203Z" fill="#FCAC1F"/>
<path d="M77.7269 30.644V87.8987H58.3423V30.644L63.1884 33.8249L66.4192 31.7037L68.0346 30.644L69.65 31.7037L72.8808 33.8249L77.7269 30.644Z" fill="#F98500"/>
<path d="M77.7269 85.6483V87.8987H75.4411L68.0346 80.6047L60.6281 87.8987H58.3423V85.6483L66.4192 77.6983V31.7037L68.0346 30.644L69.65 31.7037V77.6983L77.7269 85.6483Z" fill="#F07800"/>
</svg>
