<svg width="337" height="97" viewBox="0 0 337 97" fill="none" xmlns="http://www.w3.org/2000/svg">
<g clip-path="url(#clip0_153_3427)">
<path d="M71.5121 47.0302L60.5047 54.3137L43.7148 44.8303C47.5051 42.6687 50.3203 39.0553 51.26 34.7788L71.5121 47.0302Z" fill="#1BB8EA"/>
<path d="M71.5128 61.6001L60.673 68.1317L60.4763 68.2512L49.9176 74.6633L36.6406 67.7144L60.5055 54.3136L71.5128 61.6001Z" fill="#1BB8EA"/>
<path d="M60.5055 68.3001V81.6986L36.6406 95.4317V67.7144L49.9176 74.6632L60.4763 68.2511L60.5055 68.3001Z" fill="#B1F0FE"/>
<path d="M60.5053 54.3136L36.6405 67.7143L12.8594 54.3136L28.6312 45.3731V45.3716C28.7472 45.4259 28.8671 45.4772 28.9847 45.5285V54.7255C28.9854 56.4997 30.4291 57.9369 32.2086 57.9362H38.987C40.7672 57.9369 42.2102 56.4997 42.211 54.7255V45.5867C42.725 45.3601 43.2275 45.1082 43.7154 44.8302L60.5053 54.3136Z" fill="white"/>
<path d="M20.212 35.872C19.794 34.4754 19.585 33.0251 19.592 31.5672C19.6196 23.5777 26.2643 16.8111 34.5924 16.3249C43.8863 15.7797 51.6043 22.8403 51.6043 31.6223C51.6051 32.6836 51.4899 33.7418 51.2601 34.7786C50.3204 39.0551 47.5052 42.6685 43.715 44.8301C43.2271 45.1081 42.7246 45.36 42.2105 45.5867V48.7001H28.9842V45.5285C28.8667 45.4772 28.7468 45.4259 28.6308 45.3715C24.5801 43.5636 21.5113 40.1011 20.212 35.872V35.872Z" fill="#FEDB41"/>
<path d="M42.2107 48.7001V54.7255C42.2099 56.4996 40.7669 57.9369 38.9867 57.9361H32.2083C30.4289 57.9369 28.9851 56.4996 28.9844 54.7255V48.7001H42.2107Z" fill="#1BB8EA"/>
<path d="M36.6404 67.7144V95.4317L12.8594 81.6986V68.3001L12.8678 68.2886L23.3634 74.6632L36.6404 67.7144Z" fill="#B1F0FE"/>
<path d="M36.6417 67.7144L23.3647 74.6633L12.8691 68.2887L12.6094 68.1317L1.76953 61.6001L12.8606 54.3136L36.6417 67.7144Z" fill="#1BB8EA"/>
<path d="M28.6324 45.3715V45.3731L12.8606 54.3135L1.76953 47.0301L20.2137 35.8721C21.5129 40.1011 24.5817 43.5637 28.6324 45.3715Z" fill="#1BB8EA"/>
<path d="M0.194399 61.6308C0.201314 62.1676 0.484065 62.663 0.943536 62.9425L11.2663 69.1677V81.6987C11.2701 82.2592 11.5728 82.776 12.0607 83.0555L35.8464 96.7886C36.3343 97.0696 36.9367 97.0704 37.4254 96.7901L61.2587 83.0563C61.7381 82.773 62.0263 82.2538 62.014 81.6987V69.118L72.2937 62.9432C72.7593 62.6668 73.0513 62.1729 73.0697 61.6339C73.0843 61.0979 72.8215 60.5917 72.3751 60.2939L63.3455 54.3152L72.3805 48.3365C72.8292 48.0401 73.0943 47.5355 73.0835 46.9988C73.0735 46.4628 72.7885 45.9689 72.3283 45.6902L53.002 33.9985C53.1188 33.2121 53.178 32.418 53.178 31.6232C53.178 27.0381 51.2602 22.6605 47.8872 19.5425C44.2713 16.1864 39.4315 14.4574 34.5003 14.7599C30.0953 15.0118 25.9432 16.8932 22.856 20.0349C19.7511 23.1919 18.0339 27.2855 18.0185 31.5612C18.0139 32.7626 18.1407 33.961 18.3973 35.1348L0.950451 45.6886C0.489444 45.9674 0.203619 46.4628 0.19363 47.0003C0.183642 47.5378 0.450258 48.0424 0.901277 48.3388L9.99926 54.3136L0.901277 60.2908C0.451026 60.5871 0.183642 61.0925 0.194399 61.6308V61.6308ZM14.4134 71.0767L22.5341 76.0017C23.0089 76.2889 23.5998 76.3073 24.0923 76.0515L35.0665 70.3094V92.7104L14.4134 80.7951V71.0767ZM30.5425 50.2645H40.5741V54.7256C40.5863 55.1521 40.4242 55.5648 40.1246 55.8696C39.8257 56.1743 39.4146 56.3443 38.9866 56.3413H32.2083C31.7726 56.3474 31.3516 56.1805 31.0389 55.878C30.7269 55.5748 30.5479 55.1605 30.5425 54.7256V50.2645ZM27.3954 54.7256C27.4084 57.362 29.5629 59.4891 32.2083 59.4776H38.9866C40.249 59.4799 41.46 58.9791 42.3489 58.0863C43.2387 57.1935 43.7327 55.9837 43.7212 54.7256V46.6718L57.2756 54.3098L36.6255 65.9135L16.0339 54.3098L27.3954 47.8686V54.7256ZM38.2137 92.715V70.3094L49.1857 76.053C49.4108 76.171 49.662 76.233 49.9171 76.233C50.196 76.233 50.4688 76.1534 50.7039 76.004L58.8668 71.0254V80.7928L38.2137 92.715ZM59.8526 66.7925L49.8595 72.8615L39.9317 67.6654L60.4373 56.1521L68.5741 61.5382L59.8526 66.7925ZM60.4404 52.4744L46.6947 44.7108C49.1941 42.7575 51.0989 40.1495 52.1961 37.1785L68.578 47.0884L60.4404 52.4744ZM25.1034 22.2294C27.6436 19.6452 31.0604 18.0976 34.6847 17.8901C34.982 17.8725 35.2786 17.8641 35.5744 17.8641C39.3409 17.8503 42.9713 19.2661 45.7281 21.8236C48.468 24.3512 50.027 27.9019 50.0309 31.6225C50.0316 32.5712 49.9287 33.5168 49.7235 34.4426C48.9006 38.1869 46.4258 41.4772 42.9352 43.4688C42.4995 43.7162 42.0101 43.9466 41.5422 44.1534C40.9651 44.4007 40.5871 44.9612 40.5741 45.5868V47.1282H30.5425V45.5286C30.5456 44.9045 30.176 44.3387 29.6021 44.0891L29.5621 44.0707C29.4745 44.0332 29.3877 43.9949 29.3016 43.9543L29.2817 43.9443C25.6443 42.3249 22.8867 39.2183 21.7181 35.4235C21.3447 34.1738 21.158 32.8767 21.1649 31.5727C21.1772 28.1178 22.5763 24.8007 25.1034 22.2294ZM19.4007 38.1977C20.6923 41.112 22.7868 43.6013 25.4415 45.377L12.9197 52.4759L4.70997 47.0853L19.4007 38.1977ZM12.9221 56.1506L33.3531 67.6631L23.4207 72.8615L13.6842 66.9472L4.71458 61.5428L12.9221 56.1506Z" fill="#333333"/>
<path d="M35.6576 10.9712C36.5266 10.9712 37.2311 10.269 37.2311 9.40297V1.56818C37.2311 0.70216 36.5266 0 35.6576 0C34.7886 0 34.084 0.70216 34.084 1.56818V9.40297C34.084 10.269 34.7886 10.9712 35.6576 10.9712Z" fill="#333333"/>
<path d="M5.0306 32.4265H13.2127C14.0817 32.4265 14.7863 31.7244 14.7863 30.8583C14.7863 29.9916 14.0817 29.2902 13.2127 29.2902H5.0306C4.1616 29.2902 3.45703 29.9916 3.45703 30.8583C3.45703 31.7244 4.1616 32.4265 5.0306 32.4265Z" fill="#333333"/>
<path d="M56.4102 30.8583C56.4102 31.7244 57.1147 32.4265 57.9837 32.4265H66.1666C67.0356 32.4265 67.7402 31.7244 67.7402 30.8583C67.7402 29.9916 67.0356 29.2902 66.1666 29.2902H57.9837C57.1147 29.2902 56.4102 29.9916 56.4102 30.8583Z" fill="#333333"/>
<path d="M18.7399 16.8066C19.3699 17.4031 20.3657 17.3779 20.9642 16.75C21.5628 16.1221 21.5374 15.1297 20.9074 14.5332L15.081 9.01702C14.4509 8.42053 13.4552 8.44579 12.8566 9.07368C12.2581 9.70157 12.2834 10.6947 12.9135 11.2912L18.7399 16.8066Z" fill="#333333"/>
<path d="M51.3722 17.2385C51.7756 17.2385 52.1636 17.0846 52.4563 16.8066L58.2819 11.2912C58.912 10.6947 58.9381 9.70157 58.3388 9.07368C57.7403 8.44579 56.7445 8.42053 56.1144 9.01702L50.2888 14.5332C49.8217 14.975 49.6726 15.6558 49.9108 16.2515C50.1498 16.8472 50.7291 17.2385 51.3722 17.2385V17.2385Z" fill="#333333"/>
</g>
<path d="M95 36C96.92 36 98.6267 36.36 100.12 37.08C101.613 37.8 102.867 38.8133 103.88 40.12C104.92 41.4 105.693 42.8933 106.2 44.6C106.733 46.28 107 48.08 107 50C107 52.5867 106.533 54.9467 105.6 57.08C104.667 59.1867 103.307 60.8667 101.52 62.12C99.76 63.3733 97.5867 64 95 64H85.44C84.7467 64 84.16 63.7733 83.68 63.32C83.2267 62.84 83 62.2533 83 61.56V38.44C83 37.7467 83.2267 37.1733 83.68 36.72C84.16 36.24 84.7467 36 85.44 36H95ZM94.6 59.4C96.28 59.4 97.6533 58.9733 98.72 58.12C99.7867 57.24 100.56 56.0933 101.04 54.68C101.547 53.24 101.8 51.68 101.8 50C101.8 48.7467 101.653 47.56 101.36 46.44C101.093 45.2933 100.667 44.2933 100.08 43.44C99.4933 42.56 98.7467 41.8667 97.84 41.36C96.9333 40.8533 95.8533 40.6 94.6 40.6H87.6L88 40.24V59.84L87.76 59.4H94.6ZM121.586 64.4C119.32 64.4 117.346 63.9333 115.666 63C114.013 62.04 112.733 60.7467 111.826 59.12C110.946 57.4933 110.506 55.6533 110.506 53.6C110.506 51.2 110.986 49.16 111.946 47.48C112.933 45.7733 114.213 44.4667 115.786 43.56C117.36 42.6533 119.026 42.2 120.786 42.2C122.146 42.2 123.426 42.48 124.626 43.04C125.853 43.6 126.933 44.3733 127.866 45.36C128.8 46.32 129.533 47.44 130.066 48.72C130.626 50 130.906 51.36 130.906 52.8C130.88 53.44 130.626 53.96 130.146 54.36C129.666 54.76 129.106 54.96 128.466 54.96H113.186L111.986 50.96H126.666L125.786 51.76V50.68C125.733 49.9067 125.453 49.2133 124.946 48.6C124.466 47.9867 123.853 47.5067 123.106 47.16C122.386 46.7867 121.613 46.6 120.786 46.6C119.986 46.6 119.24 46.7067 118.546 46.92C117.853 47.1333 117.253 47.4933 116.746 48C116.24 48.5067 115.84 49.1867 115.546 50.04C115.253 50.8933 115.106 51.9733 115.106 53.28C115.106 54.72 115.4 55.9467 115.986 56.96C116.6 57.9467 117.373 58.7067 118.306 59.24C119.266 59.7467 120.28 60 121.346 60C122.333 60 123.12 59.92 123.706 59.76C124.293 59.6 124.76 59.4133 125.106 59.2C125.48 58.96 125.813 58.76 126.106 58.6C126.586 58.36 127.04 58.24 127.466 58.24C128.053 58.24 128.533 58.44 128.906 58.84C129.306 59.24 129.506 59.7067 129.506 60.24C129.506 60.96 129.133 61.6133 128.386 62.2C127.693 62.7867 126.72 63.3067 125.466 63.76C124.213 64.1867 122.92 64.4 121.586 64.4ZM133.86 60.68C133.593 60.3067 133.473 59.8267 133.5 59.24C133.527 58.6533 133.873 58.1467 134.54 57.72C134.967 57.4533 135.42 57.3467 135.9 57.4C136.38 57.4267 136.847 57.6667 137.3 58.12C138.073 58.8933 138.887 59.4933 139.74 59.92C140.593 60.3467 141.66 60.56 142.94 60.56C143.34 60.5333 143.78 60.48 144.26 60.4C144.74 60.2933 145.153 60.08 145.5 59.76C145.873 59.4133 146.06 58.8933 146.06 58.2C146.06 57.6133 145.86 57.1467 145.46 56.8C145.06 56.4533 144.527 56.16 143.86 55.92C143.22 55.68 142.5 55.4533 141.7 55.24C140.873 55 140.02 54.7333 139.14 54.44C138.287 54.1467 137.5 53.7733 136.78 53.32C136.06 52.84 135.473 52.2133 135.02 51.44C134.567 50.6667 134.34 49.6933 134.34 48.52C134.34 47.1867 134.713 46.0533 135.46 45.12C136.207 44.1867 137.167 43.4667 138.34 42.96C139.54 42.4533 140.793 42.2 142.1 42.2C142.927 42.2 143.793 42.3067 144.7 42.52C145.607 42.7067 146.473 43.0267 147.3 43.48C148.127 43.9067 148.82 44.48 149.38 45.2C149.673 45.6 149.847 46.08 149.9 46.64C149.953 47.2 149.7 47.7067 149.14 48.16C148.74 48.48 148.273 48.6267 147.74 48.6C147.207 48.5467 146.767 48.36 146.42 48.04C145.967 47.4533 145.353 46.9867 144.58 46.64C143.833 46.2933 142.967 46.12 141.98 46.12C141.58 46.12 141.14 46.1733 140.66 46.28C140.207 46.36 139.807 46.56 139.46 46.88C139.113 47.1733 138.94 47.6533 138.94 48.32C138.94 48.9333 139.14 49.4267 139.54 49.8C139.94 50.1467 140.473 50.44 141.14 50.68C141.833 50.8933 142.567 51.1067 143.34 51.32C144.14 51.5333 144.953 51.7867 145.78 52.08C146.607 52.3733 147.367 52.76 148.06 53.24C148.753 53.72 149.313 54.3467 149.74 55.12C150.167 55.8667 150.38 56.8267 150.38 58C150.38 59.36 149.98 60.52 149.18 61.48C148.38 62.44 147.38 63.1733 146.18 63.68C144.98 64.16 143.753 64.4 142.5 64.4C140.927 64.4 139.353 64.1333 137.78 63.6C136.207 63.04 134.9 62.0667 133.86 60.68ZM158.917 61.56C158.917 62.2533 158.69 62.84 158.237 63.32C157.784 63.7733 157.21 64 156.517 64C155.824 64 155.25 63.7733 154.797 63.32C154.344 62.84 154.117 62.2533 154.117 61.56V45.04C154.117 44.3467 154.344 43.7733 154.797 43.32C155.25 42.84 155.824 42.6 156.517 42.6C157.21 42.6 157.784 42.84 158.237 43.32C158.69 43.7733 158.917 44.3467 158.917 45.04V61.56ZM156.477 40C155.57 40 154.93 39.8533 154.557 39.56C154.184 39.2667 153.997 38.7467 153.997 38V37.24C153.997 36.4667 154.197 35.9467 154.597 35.68C155.024 35.3867 155.664 35.24 156.517 35.24C157.45 35.24 158.104 35.3867 158.477 35.68C158.85 35.9733 159.037 36.4933 159.037 37.24V38C159.037 38.7733 158.837 39.3067 158.437 39.6C158.037 39.8667 157.384 40 156.477 40ZM172.73 42.2C173.85 42.2 174.877 42.3733 175.81 42.72C176.743 43.0667 177.543 43.5067 178.21 44.04C178.903 44.5733 179.437 45.12 179.81 45.68C180.21 46.2133 180.41 46.6667 180.41 47.04L179.37 47.56V44.64C179.37 43.9467 179.597 43.3733 180.05 42.92C180.503 42.44 181.077 42.2 181.77 42.2C182.463 42.2 183.037 42.4267 183.49 42.88C183.943 43.3333 184.17 43.92 184.17 44.64V62.44C184.17 64.76 183.663 66.6133 182.65 68C181.663 69.4133 180.357 70.4267 178.73 71.04C177.103 71.68 175.357 72 173.49 72C172.957 72 172.263 71.9333 171.41 71.8C170.557 71.6667 169.743 71.5067 168.97 71.32C168.197 71.1333 167.61 70.96 167.21 70.8C166.41 70.4533 165.85 70.0133 165.53 69.48C165.237 68.9733 165.183 68.4267 165.37 67.84C165.61 67.0667 165.997 66.5333 166.53 66.24C167.063 65.9733 167.623 65.9467 168.21 66.16C168.477 66.24 168.917 66.4 169.53 66.64C170.143 66.88 170.81 67.0933 171.53 67.28C172.277 67.4933 172.93 67.6 173.49 67.6C175.49 67.6 176.97 67.2 177.93 66.4C178.89 65.6 179.37 64.4933 179.37 63.08V59.6L179.85 59.96C179.85 60.3067 179.663 60.7333 179.29 61.24C178.943 61.72 178.45 62.2 177.81 62.68C177.197 63.16 176.463 63.5733 175.61 63.92C174.757 64.24 173.85 64.4 172.89 64.4C170.997 64.4 169.29 63.9333 167.77 63C166.25 62.04 165.05 60.7333 164.17 59.08C163.29 57.4 162.85 55.48 162.85 53.32C162.85 51.1333 163.29 49.2133 164.17 47.56C165.05 45.88 166.237 44.5733 167.73 43.64C169.223 42.68 170.89 42.2 172.73 42.2ZM173.49 46.6C172.29 46.6 171.237 46.8933 170.33 47.48C169.423 48.0667 168.717 48.8667 168.21 49.88C167.703 50.8933 167.45 52.04 167.45 53.32C167.45 54.5733 167.703 55.7067 168.21 56.72C168.717 57.7333 169.423 58.5333 170.33 59.12C171.237 59.7067 172.29 60 173.49 60C174.717 60 175.783 59.7067 176.69 59.12C177.597 58.5333 178.303 57.7333 178.81 56.72C179.317 55.7067 179.57 54.5733 179.57 53.32C179.57 52.04 179.317 50.8933 178.81 49.88C178.303 48.8667 177.597 48.0667 176.69 47.48C175.783 46.8933 174.717 46.6 173.49 46.6ZM200.798 42.2C202.771 42.2 204.264 42.6133 205.278 43.44C206.318 44.2667 207.024 45.3733 207.398 46.76C207.798 48.12 207.998 49.64 207.998 51.32V61.56C207.998 62.2533 207.771 62.84 207.318 63.32C206.864 63.7733 206.291 64 205.598 64C204.904 64 204.331 63.7733 203.878 63.32C203.424 62.84 203.198 62.2533 203.198 61.56V51.32C203.198 50.44 203.078 49.6533 202.838 48.96C202.624 48.24 202.224 47.6667 201.638 47.24C201.051 46.8133 200.211 46.6 199.118 46.6C198.051 46.6 197.144 46.8133 196.398 47.24C195.678 47.6667 195.118 48.24 194.718 48.96C194.344 49.6533 194.158 50.44 194.158 51.32V61.56C194.158 62.2533 193.931 62.84 193.478 63.32C193.024 63.7733 192.451 64 191.758 64C191.064 64 190.491 63.7733 190.038 63.32C189.584 62.84 189.358 62.2533 189.358 61.56V45.04C189.358 44.3467 189.584 43.7733 190.038 43.32C190.491 42.84 191.064 42.6 191.758 42.6C192.451 42.6 193.024 42.84 193.478 43.32C193.931 43.7733 194.158 44.3467 194.158 45.04V46.76L193.558 46.64C193.798 46.1867 194.144 45.7067 194.598 45.2C195.051 44.6667 195.584 44.1733 196.198 43.72C196.811 43.2667 197.504 42.9067 198.278 42.64C199.051 42.3467 199.891 42.2 200.798 42.2ZM236.797 36C238.717 36 240.424 36.36 241.917 37.08C243.41 37.8 244.664 38.8133 245.677 40.12C246.717 41.4 247.49 42.8933 247.997 44.6C248.53 46.28 248.797 48.08 248.797 50C248.797 52.5867 248.33 54.9467 247.397 57.08C246.464 59.1867 245.104 60.8667 243.317 62.12C241.557 63.3733 239.384 64 236.797 64H227.237C226.544 64 225.957 63.7733 225.477 63.32C225.024 62.84 224.797 62.2533 224.797 61.56V38.44C224.797 37.7467 225.024 37.1733 225.477 36.72C225.957 36.24 226.544 36 227.237 36H236.797ZM236.397 59.4C238.077 59.4 239.45 58.9733 240.517 58.12C241.584 57.24 242.357 56.0933 242.837 54.68C243.344 53.24 243.597 51.68 243.597 50C243.597 48.7467 243.45 47.56 243.157 46.44C242.89 45.2933 242.464 44.2933 241.877 43.44C241.29 42.56 240.544 41.8667 239.637 41.36C238.73 40.8533 237.65 40.6 236.397 40.6H229.397L229.797 40.24V59.84L229.557 59.4H236.397ZM257.511 61.56C257.511 62.2533 257.284 62.84 256.831 63.32C256.377 63.7733 255.804 64 255.111 64C254.417 64 253.844 63.7733 253.391 63.32C252.937 62.84 252.711 62.2533 252.711 61.56V45.04C252.711 44.3467 252.937 43.7733 253.391 43.32C253.844 42.84 254.417 42.6 255.111 42.6C255.804 42.6 256.377 42.84 256.831 43.32C257.284 43.7733 257.511 44.3467 257.511 45.04V61.56ZM255.071 40C254.164 40 253.524 39.8533 253.151 39.56C252.777 39.2667 252.591 38.7467 252.591 38V37.24C252.591 36.4667 252.791 35.9467 253.191 35.68C253.617 35.3867 254.257 35.24 255.111 35.24C256.044 35.24 256.697 35.3867 257.071 35.68C257.444 35.9733 257.631 36.4933 257.631 37.24V38C257.631 38.7733 257.431 39.3067 257.031 39.6C256.631 39.8667 255.977 40 255.071 40ZM279.964 42.2C280.657 42.2 281.23 42.4267 281.684 42.88C282.137 43.3333 282.364 43.92 282.364 44.64V61.56C282.364 62.2533 282.137 62.84 281.684 63.32C281.23 63.7733 280.657 64 279.964 64C279.27 64 278.697 63.7733 278.244 63.32C277.79 62.84 277.564 62.2533 277.564 61.56V59.6L278.444 59.96C278.444 60.3067 278.257 60.7333 277.884 61.24C277.51 61.72 277.004 62.2 276.364 62.68C275.724 63.16 274.964 63.5733 274.084 63.92C273.23 64.24 272.297 64.4 271.284 64.4C269.444 64.4 267.777 63.9333 266.284 63C264.79 62.04 263.604 60.7333 262.724 59.08C261.87 57.4 261.444 55.48 261.444 53.32C261.444 51.1333 261.87 49.2133 262.724 47.56C263.604 45.88 264.777 44.5733 266.244 43.64C267.71 42.68 269.337 42.2 271.124 42.2C272.27 42.2 273.324 42.3733 274.284 42.72C275.244 43.0667 276.07 43.5067 276.764 44.04C277.484 44.5733 278.03 45.12 278.404 45.68C278.804 46.2133 279.004 46.6667 279.004 47.04L277.564 47.56V44.64C277.564 43.9467 277.79 43.3733 278.244 42.92C278.697 42.44 279.27 42.2 279.964 42.2ZM271.884 60C273.057 60 274.084 59.7067 274.964 59.12C275.844 58.5333 276.524 57.7333 277.004 56.72C277.51 55.7067 277.764 54.5733 277.764 53.32C277.764 52.04 277.51 50.8933 277.004 49.88C276.524 48.8667 275.844 48.0667 274.964 47.48C274.084 46.8933 273.057 46.6 271.884 46.6C270.737 46.6 269.724 46.8933 268.844 47.48C267.964 48.0667 267.27 48.8667 266.764 49.88C266.284 50.8933 266.044 52.04 266.044 53.32C266.044 54.5733 266.284 55.7067 266.764 56.72C267.27 57.7333 267.964 58.5333 268.844 59.12C269.724 59.7067 270.737 60 271.884 60ZM272.324 41.24C272.11 41.24 271.83 41.1333 271.484 40.92C271.164 40.68 271.017 40.3467 271.044 39.92C271.044 39.68 271.124 39.4267 271.284 39.16L273.604 35.08C273.844 34.6533 274.15 34.28 274.524 33.96C274.897 33.64 275.324 33.48 275.804 33.48C276.55 33.48 277.097 33.68 277.444 34.08C277.79 34.4533 277.95 34.92 277.924 35.48C277.897 35.7467 277.817 36.0267 277.684 36.32C277.577 36.6133 277.404 36.9067 277.164 37.2L274.124 40.56C273.857 40.8533 273.564 41.04 273.244 41.12C272.924 41.2 272.617 41.24 272.324 41.24ZM289.961 64C289.268 64 288.694 63.7733 288.241 63.32C287.788 62.84 287.561 62.2533 287.561 61.56V45.04C287.561 44.3467 287.788 43.7733 288.241 43.32C288.694 42.84 289.268 42.6 289.961 42.6C290.654 42.6 291.228 42.84 291.681 43.32C292.134 43.7733 292.361 44.3467 292.361 45.04V48.8L292.081 46.12C292.374 45.48 292.748 44.92 293.201 44.44C293.681 43.9333 294.214 43.52 294.801 43.2C295.388 42.8533 296.014 42.6 296.681 42.44C297.348 42.28 298.014 42.2 298.681 42.2C299.481 42.2 300.148 42.4267 300.681 42.88C301.241 43.3333 301.521 43.8667 301.521 44.48C301.521 45.36 301.294 46 300.841 46.4C300.388 46.7733 299.894 46.96 299.361 46.96C298.854 46.96 298.388 46.8667 297.961 46.68C297.561 46.4933 297.094 46.4 296.561 46.4C296.081 46.4 295.588 46.52 295.081 46.76C294.601 46.9733 294.148 47.32 293.721 47.8C293.321 48.28 292.988 48.88 292.721 49.6C292.481 50.2933 292.361 51.12 292.361 52.08V61.56C292.361 62.2533 292.134 62.84 291.681 63.32C291.228 63.7733 290.654 64 289.961 64ZM309.425 61.56C309.425 62.2533 309.198 62.84 308.745 63.32C308.291 63.7733 307.718 64 307.025 64C306.331 64 305.758 63.7733 305.305 63.32C304.851 62.84 304.625 62.2533 304.625 61.56V45.04C304.625 44.3467 304.851 43.7733 305.305 43.32C305.758 42.84 306.331 42.6 307.025 42.6C307.718 42.6 308.291 42.84 308.745 43.32C309.198 43.7733 309.425 44.3467 309.425 45.04V61.56ZM306.985 40C306.078 40 305.438 39.8533 305.065 39.56C304.691 39.2667 304.505 38.7467 304.505 38V37.24C304.505 36.4667 304.705 35.9467 305.105 35.68C305.531 35.3867 306.171 35.24 307.025 35.24C307.958 35.24 308.611 35.3867 308.985 35.68C309.358 35.9733 309.545 36.4933 309.545 37.24V38C309.545 38.7733 309.345 39.3067 308.945 39.6C308.545 39.8667 307.891 40 306.985 40ZM335.118 53.32C335.118 55.5067 334.624 57.44 333.638 59.12C332.678 60.7733 331.371 62.0667 329.718 63C328.091 63.9333 326.264 64.4 324.238 64.4C322.211 64.4 320.371 63.9333 318.718 63C317.091 62.0667 315.784 60.7733 314.798 59.12C313.838 57.44 313.358 55.5067 313.358 53.32C313.358 51.1333 313.838 49.2133 314.798 47.56C315.784 45.88 317.091 44.5733 318.718 43.64C320.371 42.68 322.211 42.2 324.238 42.2C326.264 42.2 328.091 42.68 329.718 43.64C331.371 44.5733 332.678 45.88 333.638 47.56C334.624 49.2133 335.118 51.1333 335.118 53.32ZM330.318 53.32C330.318 51.96 330.038 50.7867 329.478 49.8C328.944 48.7867 328.211 48 327.278 47.44C326.371 46.88 325.358 46.6 324.238 46.6C323.118 46.6 322.091 46.88 321.158 47.44C320.251 48 319.518 48.7867 318.958 49.8C318.424 50.7867 318.158 51.96 318.158 53.32C318.158 54.6533 318.424 55.8267 318.958 56.84C319.518 57.8267 320.251 58.6 321.158 59.16C322.091 59.72 323.118 60 324.238 60C325.358 60 326.371 59.72 327.278 59.16C328.211 58.6 328.944 57.8267 329.478 56.84C330.038 55.8267 330.318 54.6533 330.318 53.32Z" fill="black"/>
<defs>
<clipPath id="clip0_153_3427">
<rect width="73" height="97" fill="white"/>
</clipPath>
</defs>
</svg>
