<svg width="300" height="300" viewBox="0 0 300 300" fill="none" xmlns="http://www.w3.org/2000/svg">
<path d="M50.6991 66.9584V224.63H91.8293V265.761H174.09V224.63H91.8293V66.9584H50.6991ZM91.8293 25.8282V66.9584H174.09V108.089H215.225V66.9584H174.09V25.8282H91.8293ZM215.225 224.63V145.792H132.96V186.927H174.09V224.63H215.225Z" fill="#FF00FF"/>
<path d="M84.7893 75.4581V233.13H125.919V274.26H208.18V233.13H125.919V75.4581H84.7893ZM125.919 34.3279V75.4581H208.18V116.588H249.315V75.4581H208.18V34.3279H125.919ZM249.315 233.13V154.291H167.05V195.427H208.18V233.13H249.315Z" fill="#40E0D0"/>
<path d="M67.7442 71.2082V228.88H108.874V270.01H191.135V228.88H108.874V71.2082H67.7442ZM108.874 30.078V71.2082H191.135V112.338H232.27V71.2082H191.135V30.078H108.874ZM232.27 228.88V150.042H150.005V191.177H191.135V228.88H232.27Z" fill="#3B1B72"/>
</svg>
