<svg width="159" height="40" viewBox="0 0 159 40" fill="none" xmlns="http://www.w3.org/2000/svg">
<path fill-rule="evenodd" clip-rule="evenodd" d="M0.0778705 19.9132L0.155741 39.8264L3.42964 39.913L6.70383 40L6.04724 39.1055C5.07643 37.7828 4.97493 35.9139 5.74848 33.6046C7.25226 29.1166 10.5368 25.6906 13.8473 25.1574C16.3458 24.7549 18.9586 26.2744 19.7097 28.5666C19.927 29.2301 20.2594 29.5966 20.7011 29.6601C21.6098 29.7904 21.5404 31.2483 20.4963 33.9653C19.0331 37.7722 19.6173 39.3027 22.4061 38.97C24.9886 38.6621 27.1592 37.3763 30.3325 34.2748C31.9315 32.7122 33.4489 31.4338 33.7043 31.4338C34.4188 31.4338 34.9372 32.2593 34.7342 33.0739C34.54 33.8536 30.2625 38.0825 28.7706 38.9703C28.2806 39.2618 27.8801 39.6078 27.8801 39.7397C27.8801 39.8712 30.6071 39.9789 33.94 39.9789H40V19.9895V0H20H0L0.0778705 19.9132ZM13.4677 27.9499C10.827 28.8642 7.74857 33.3702 7.93825 36.043L8.03369 37.3849L9.30235 37.3599C10.9616 37.3275 13.937 35.8339 16.0204 33.9876L17.6445 32.5487L17.5106 30.9208C17.2909 28.2563 15.7832 27.1481 13.4677 27.9499ZM16.2146 37.0467C15.7147 37.4401 14.3512 38.2537 13.1847 38.8553L11.0637 39.949L14.2764 39.964L17.4891 39.9789L17.3582 38.3767C17.286 37.4957 17.2039 36.675 17.1755 36.5533C17.147 36.4315 16.7146 36.6537 16.2146 37.0467Z" fill="#7C4398"/>
<path d="M56.624 29L64.996 9.292H65.178L73.55 29H70.066L64.164 14.05L66.348 12.568L59.614 29H56.624ZM61.876 21.98H68.35L69.39 24.554H60.966L61.876 21.98ZM76.2597 29V10.072H81.6417C83.531 10.072 85.1344 10.358 86.4517 10.93C87.769 11.4847 88.835 12.2387 89.6497 13.192C90.4644 14.128 91.0537 15.1767 91.4177 16.338C91.799 17.482 91.9897 18.6347 91.9897 19.796C91.9897 21.2173 91.7384 22.4913 91.2357 23.618C90.733 24.7447 90.0484 25.7153 89.1817 26.53C88.315 27.3273 87.3097 27.9427 86.1657 28.376C85.039 28.792 83.8344 29 82.5517 29H76.2597ZM79.3017 26.088H82.0057C83.011 26.088 83.9297 25.9493 84.7617 25.672C85.5937 25.3773 86.313 24.9613 86.9197 24.424C87.5437 23.8693 88.0204 23.1847 88.3497 22.37C88.6964 21.5553 88.8697 20.628 88.8697 19.588C88.8697 18.4093 88.6704 17.404 88.2717 16.572C87.8904 15.7227 87.379 15.038 86.7377 14.518C86.1137 13.9807 85.429 13.5907 84.6837 13.348C83.9384 13.1053 83.2017 12.984 82.4737 12.984H79.3017V26.088ZM95.519 29V9.396H95.545L105.737 23.826L104.437 23.54L114.577 9.396H114.629V29H111.613V16.234L111.821 17.794L104.983 27.466H104.931L97.937 17.794L98.457 16.364V29H95.519ZM134.352 27.258C134.109 27.5007 133.745 27.7347 133.26 27.96C132.792 28.1853 132.263 28.3933 131.674 28.584C131.084 28.7747 130.478 28.922 129.854 29.026C129.23 29.1473 128.64 29.208 128.086 29.208C126.56 29.208 125.182 28.974 123.952 28.506C122.738 28.038 121.69 27.3967 120.806 26.582C119.939 25.75 119.272 24.7707 118.804 23.644C118.353 22.5173 118.128 21.2953 118.128 19.978C118.128 18.3313 118.388 16.884 118.908 15.636C119.428 14.3707 120.138 13.3133 121.04 12.464C121.941 11.5973 122.972 10.9473 124.134 10.514C125.312 10.0807 126.552 9.864 127.852 9.864C128.996 9.864 130.053 9.994 131.024 10.254C132.012 10.514 132.852 10.8433 133.546 11.242L132.558 14.05C132.228 13.8593 131.804 13.6773 131.284 13.504C130.764 13.3133 130.235 13.166 129.698 13.062C129.178 12.958 128.692 12.906 128.242 12.906C127.15 12.906 126.17 13.062 125.304 13.374C124.454 13.6687 123.726 14.1107 123.12 14.7C122.513 15.2893 122.045 16.0087 121.716 16.858C121.404 17.69 121.248 18.6433 121.248 19.718C121.248 20.6887 121.412 21.5727 121.742 22.37C122.088 23.1673 122.565 23.852 123.172 24.424C123.796 24.996 124.524 25.438 125.356 25.75C126.205 26.0447 127.141 26.192 128.164 26.192C128.753 26.192 129.325 26.14 129.88 26.036C130.434 25.932 130.902 25.7673 131.284 25.542V22.396H127.748V19.484H134.352V27.258ZM137.26 19.562C137.26 18.2447 137.511 17.0053 138.014 15.844C138.517 14.6827 139.21 13.6513 140.094 12.75C140.978 11.8487 142.001 11.1467 143.162 10.644C144.341 10.124 145.597 9.864 146.932 9.864C148.249 9.864 149.489 10.124 150.65 10.644C151.829 11.1467 152.86 11.8487 153.744 12.75C154.645 13.6513 155.347 14.6827 155.85 15.844C156.37 17.0053 156.63 18.2447 156.63 19.562C156.63 20.8967 156.37 22.1447 155.85 23.306C155.347 24.4673 154.645 25.4987 153.744 26.4C152.86 27.284 151.829 27.9773 150.65 28.48C149.489 28.9653 148.249 29.208 146.932 29.208C145.58 29.208 144.323 28.9653 143.162 28.48C142.001 27.9773 140.978 27.2927 140.094 26.426C139.21 25.542 138.517 24.5193 138.014 23.358C137.511 22.1793 137.26 20.914 137.26 19.562ZM140.38 19.562C140.38 20.498 140.545 21.3733 140.874 22.188C141.221 23.0027 141.697 23.722 142.304 24.346C142.911 24.9527 143.613 25.4293 144.41 25.776C145.207 26.1227 146.074 26.296 147.01 26.296C147.911 26.296 148.752 26.1227 149.532 25.776C150.329 25.4293 151.023 24.9527 151.612 24.346C152.201 23.722 152.661 23.0027 152.99 22.188C153.337 21.3733 153.51 20.498 153.51 19.562C153.51 18.6087 153.337 17.7247 152.99 16.91C152.643 16.0953 152.175 15.376 151.586 14.752C150.997 14.128 150.303 13.6427 149.506 13.296C148.709 12.9493 147.851 12.776 146.932 12.776C146.013 12.776 145.155 12.9493 144.358 13.296C143.561 13.6427 142.859 14.128 142.252 14.752C141.663 15.376 141.203 16.104 140.874 16.936C140.545 17.7507 140.38 18.626 140.38 19.562Z" fill="#7C4398"/>
</svg>
