<svg width="200" height="200" viewBox="0 0 200 200" fill="none" xmlns="http://www.w3.org/2000/svg">
<path d="M117.501 180.5C126.501 193 154 157 159.5 146C165 135 184.487 130.668 187.501 115.5C192.381 90.9343 168 67 164 47C160 27 127.54 23.3841 102 25.5C86.8008 26.7593 76.3752 27.8398 65.0005 38C58.415 43.8823 56.0682 48.6627 52.0005 56.5C43.1262 73.598 50.13 87.1041 43.0004 105C38.3749 116.611 27.6446 118.216 27.5009 133C27.3374 149.833 12.5423 171.799 28.5009 177C40.9285 181.05 68.2697 165.463 81.0005 162.5C101.217 157.795 126.167 159.333 133 151.5C139.834 143.667 147.455 133.915 155 121.5C165.257 104.625 169.5 88.6667 176 75.5C182.5 62.3333 168.082 32.4433 146.5 25.5C127.043 19.2403 116.933 47.0208 97.0005 42.5C81.8799 39.0707 80.1011 22.516 65.0005 19C37.9274 12.6964 31.3652 29.7941 14.0003 51.5C-14 86.5 30.1061 66.1967 33.5004 80.5C36.2687 92.1652 23.2316 98.142 25.0004 110C26.8462 122.374 33.0004 166.5 49.5 151.5C65.9996 136.5 59.6111 165.924 78.5009 174C98.1306 182.391 106.402 170.673 124.001 167C146.029 162.401 166.588 168.612 179.5 151.5C192.473 134.31 179.673 115.534 179.5 93.9995C179.345 74.6062 185.501 13.5 175.001 27.5C157.909 50.2895 107.001 25.1663 115.5 12C122.025 1.89267 96.8205 14.9273 85.5005 19C61.0391 27.8006 45.9535 35.5952 30.5004 56.5C19.4201 71.4894 14.0731 81.9755 12.0004 100.5C8.05815 135.735 18.6974 169.837 52.0005 182C68.5077 188.029 107.233 166.238 117.501 180.5Z" stroke="black" stroke-opacity="0.85" stroke-width="6"/>
</svg>
