<svg width="200" height="200" viewBox="0 0 200 200" fill="none" xmlns="http://www.w3.org/2000/svg">
<path d="M114.499 185C128.592 191.217 163.5 153 169 142C174.5 131 184.985 121.669 187.999 106.501C192.879 81.9353 168 67.0005 164 47.0005C160 27.0005 130.039 12.8846 104.499 15.0005C89.2994 16.2598 65.8738 17.3402 54.4991 27.5005C47.9136 33.3828 42.5668 32.6632 38.4991 40.5005C29.6248 57.5985 27.1286 64.6047 19.9991 82.5006C15.3735 94.1112 19.4997 113.001 24 129C28.5583 145.206 26.0405 157.3 41.9991 162.5C54.4267 166.55 84.2684 189.463 96.9991 186.5C117.216 181.796 143.666 174.334 150.499 166.5C157.332 158.667 167.453 152.416 174.999 140.001C185.256 123.125 178.5 106.501 178.5 80.0005C178.5 53.5004 168.082 32.4438 146.5 25.5005C127.043 19.2409 132.999 20.0001 114.499 16.5C99.2647 13.6178 96.9991 11.5006 79 14.9999C61.0009 18.4991 34.2885 35.0987 22.9997 60.5005C19 69.5005 14.1054 77.6973 17.4997 92.0006C20.268 103.666 14.2302 106.643 15.9991 118.501C17.8449 130.874 23.4991 145.5 38.4991 156.5C53.4991 167.5 62.1097 174.425 80.9995 182.5C100.629 190.892 110.401 181.174 127.999 177.5C150.028 172.902 160.587 167.112 173.5 150C186.472 132.81 182.672 115.035 182.499 93.5006C182.343 74.1072 178.498 69.0006 169.999 52.5005C156.955 27.1758 130.154 19.7126 114.499 19.0011C92.4986 18.0011 96.8196 14.9278 85.4995 19.0005C61.0382 27.8011 45.9526 35.5957 30.4995 56.5005C19.4192 71.4899 14.0722 81.976 11.9995 100.501C8.05724 135.735 29.196 164.338 62.4991 176.5C79.0063 182.529 97.4991 177.501 114.499 185Z" stroke="black" stroke-opacity="0.85" stroke-width="6"/>
</svg>
