<svg width="200" height="200" viewBox="0 0 200 200" fill="none" xmlns="http://www.w3.org/2000/svg">
<path d="M38.0001 168.501C-5.83327 192.834 103.5 176.001 103.5 176.001C103.5 176.001 149.281 174.465 146 156.501C143.317 141.81 116 138.201 112 139.001C108 139.801 94.6667 151.001 88.5001 156.501C82.3334 162.001 88.191 175.267 94.0001 185.001C108.132 208.681 167.856 187.835 171.5 160.501C174.886 135.101 100.098 181.032 107.5 156.501C111.09 144.604 125.491 145.58 130 134.001C140.733 106.439 82.9123 119.781 54.5001 128.001C42.0808 131.594 24.6757 129.074 24.5001 142.001C24.3233 155.012 42.1016 160.45 54.5001 156.501C72.5094 150.764 29.5076 127.887 38.0001 111.001C47.8736 91.3696 58.3726 54.3055 88.5001 63.0005C110.927 69.473 106.821 104.57 130 105.501C151.072 106.348 174.462 94.5684 173.5 73.5011C172.81 58.3907 160.426 53.4138 149 43.5011C120.089 18.4177 36.9054 -9.75439 22 25.5C16.145 39.3483 29.5011 49.214 35.5 63.0005C47.576 90.7533 111.701 97.6088 130 73.5011C144.043 55.0009 144.161 22.8827 122.5 14.5011C100.339 5.92599 86.772 33.9167 78.0001 56.0011C73.8997 66.3242 69.6846 73.3998 73.0001 84.0011C79.665 105.312 108.627 82.0375 130 88.5011C148.307 94.0374 171.667 98.501 173.5 111.001C175.333 123.501 178 134.001 178.5 152.501C179 171.001 175.5 180.001 152 181.001C128.5 182.001 31.4305 149.625 24.5001 88.5011C22.2599 68.7435 11.4943 41.8619 31.0001 38.0011C50.7887 34.0843 39.6787 70.3168 54.5001 84.0011C91.9289 118.558 142.047 7.91619 178.5 43.5011C219.555 83.5778 126.019 151.861 69.5001 142.001C42.8095 137.345 28.7171 125.556 10.5001 105.501C-30.4875 60.378 154.833 147.501 164.5 131.001C174.167 114.501 178.65 106.148 181.5 88.5011C191.73 25.1614 81.8334 144.168 38.0001 168.501Z" stroke="black" stroke-opacity="0.85" stroke-width="6"/>
</svg>
